<?xml version="1.0" standalone="no"?>
<!DOCTYPE svg PUBLIC "-//W3C//DTD SVG 20010904//EN"
 "http://www.w3.org/TR/2001/REC-SVG-20010904/DTD/svg10.dtd">
<svg version="1.0" xmlns="http://www.w3.org/2000/svg"
 width="572.000000pt" height="572.000000pt" viewBox="0 0 572.000000 572.000000"
 preserveAspectRatio="xMidYMid meet">
<metadata>
Created by potrace 1.14, written by Peter Selinger 2001-2017
</metadata>
<g transform="translate(0.000000,572.000000) scale(0.100000,-0.100000)"
fill="#000000" stroke="none">
<path d="M2178 4845 c-2 -2 -44 -6 -93 -9 -50 -3 -103 -8 -120 -11 -179 -32
-271 -61 -400 -126 -107 -54 -190 -111 -243 -169 -90 -95 -151 -226 -168 -355
-4 -37 -9 -2900 -5 -3166 l1 -37 1729 0 1728 0 0 1929 0 1928 -21 7 c-11 4
-55 6 -96 5 -88 -2 -81 -2 -195 -2 -49 1 -98 1 -107 1 -10 -1 -34 -1 -53 -1
-19 0 -41 0 -47 0 -7 0 -60 0 -118 0 -58 1 -112 0 -120 0 -8 0 -62 0 -120 0
-58 1 -112 1 -120 0 -8 0 -62 0 -120 0 -58 1 -112 0 -120 0 -8 0 -100 1 -205
1 -104 1 -194 1 -200 0 -5 -1 -14 -1 -20 0 -8 2 -120 1 -215 -1 -8 0 -117 1
-243 2 -125 1 -230 0 -233 -3 -3 -3 -20 -2 -39 2 -19 4 -35 6 -37 5z m212
-384 c82 -21 125 -35 170 -59 119 -63 166 -110 216 -211 50 -105 52 -132 49
-653 -1 -265 -4 -496 -7 -511 -9 -48 -59 -163 -84 -193 -51 -62 -89 -94 -145
-124 -60 -32 -169 -73 -169 -64 0 3 -6 2 -12 -3 -14 -8 -22 -10 -93 -19 -92
-12 -321 -4 -346 12 -5 3 -19 7 -30 9 -86 17 -132 45 -211 128 -57 59 -93 120
-103 174 -2 15 -7 39 -10 53 -7 31 -7 1030 -1 1085 20 160 89 255 230 320 64
29 163 58 236 68 50 7 266 -1 310 -12z m1777 -651 l0 -600 -449 0 -448 0 -1
33 c0 17 0 226 -1 462 -1 383 -3 439 -19 510 -19 78 -27 103 -55 157 -8 14
-14 29 -14 32 0 3 222 6 493 6 l494 0 0 -600z m0 -1715 l0 -734 -1279 0 -1278
0 -1 27 c-2 112 -1 984 2 986 2 2 25 -6 51 -19 46 -22 95 -38 101 -33 2 2 11
-3 20 -11 10 -7 17 -10 17 -7 0 4 8 2 18 -3 10 -5 38 -12 62 -16 25 -4 47 -8
50 -10 26 -16 339 -26 432 -13 119 16 137 19 195 34 32 9 65 17 73 19 8 2 16
4 18 5 1 2 5 3 10 5 4 1 21 7 37 14 17 6 44 17 60 23 43 17 153 76 205 111 98
65 199 192 246 309 l19 48 471 0 471 0 0 -735z"/>
</g>
</svg>
