<svg width="31" height="33" viewBox="0 0 31 33" fill="none" xmlns="http://www.w3.org/2000/svg">
<path fill-rule="evenodd" clip-rule="evenodd" d="M0.951065 0.000732422L3.59931 29.7018L15.4814 32.9997L27.3985 29.6976L30.0488 0.000732422H0.951065ZM15.4855 6.07202H6.36511L7.34789 17.0878L15.4875 17.0878L15.4999 17.0878L19.9735 17.0878L19.561 21.811L15.4999 22.9066V22.8938L15.4845 22.8979L11.4275 21.8027L11.1697 18.8977H7.51083L8.0213 24.617L15.4834 26.6795L15.4978 26.675V26.697L22.9662 24.6273L23.9665 13.4434H15.4999L15.4999 13.4455H10.6799L10.3468 9.71543H15.4999V9.7144H24.2841L24.3563 8.89558L24.5254 7.04965L24.612 6.07202H15.4999H15.4876H15.4855Z" fill="#3B3B3D"/>
</svg>
