<svg width="33" height="33" viewBox="0 0 33 33" fill="none" xmlns="http://www.w3.org/2000/svg">
<path d="M7 23.3824V9.2338C7 9.13707 7.04138 9.08224 7.13759 9.08224C7.37138 9.08224 7.59121 9.08224 7.90724 9.0688C8.23776 9.05483 8.57965 9.05483 8.95259 9.04086C9.32552 9.0269 9.72224 9.02742 10.149 9.01345C10.5757 8.99949 10.9874 9 11.4002 9C12.5272 9 13.4624 9.13707 14.2326 9.42621C14.9228 9.66057 15.5522 10.0458 16.075 10.5538C16.5181 10.9982 16.8605 11.5327 17.079 12.121C17.2868 12.6942 17.3937 13.299 17.395 13.9086C17.395 15.091 17.12 16.0672 16.57 16.8372C16.0176 17.6063 15.2461 18.1909 14.3562 18.5147C13.421 18.8586 12.3907 18.9802 11.2626 18.9802C10.9326 18.9802 10.7122 18.9802 10.5752 18.9662C10.4381 18.9522 10.2452 18.9528 9.98396 18.9528V23.3664C9.98692 23.389 9.98532 23.412 9.97927 23.434C9.97321 23.456 9.96282 23.4766 9.9487 23.4945C9.93458 23.5124 9.91702 23.5273 9.89705 23.5384C9.87708 23.5494 9.8551 23.5564 9.83241 23.5588H7.165C7.05483 23.5609 7 23.506 7 23.3824ZM9.99741 11.7362V16.3562C10.1898 16.3697 10.3688 16.3836 10.5338 16.3836H11.2647C11.8014 16.3842 12.335 16.3006 12.8459 16.1359C13.2837 16.0065 13.6746 15.753 13.9714 15.406C14.26 15.0626 14.3976 14.595 14.3976 13.9898C14.41 13.5608 14.3002 13.1371 14.081 12.7681C13.8517 12.4114 13.5147 12.1369 13.119 11.9845C12.6027 11.7824 12.0504 11.6887 11.4964 11.7093C11.139 11.7093 10.824 11.7093 10.5612 11.7233C10.3732 11.7108 10.1845 11.7155 9.99741 11.7372V11.7362Z" fill="#3B3B3D"/>
<path d="M25.9746 15.516C25.5593 15.2982 25.1147 15.1414 24.6546 15.0505C24.1492 14.9363 23.633 14.8765 23.1148 14.8721C22.8356 14.8621 22.5566 14.8945 22.2872 14.9683C22.116 15.0038 21.9641 15.1017 21.861 15.2429C21.7915 15.3545 21.7534 15.4828 21.7508 15.6143C21.7571 15.7451 21.8053 15.8705 21.8884 15.9717C22.018 16.1246 22.1761 16.2507 22.3539 16.3431C22.67 16.5081 23 16.6591 23.33 16.7967C24.0728 17.0469 24.7836 17.3839 25.4475 17.8007C25.8991 18.0845 26.2725 18.4767 26.5338 18.9417C26.7547 19.3804 26.8632 19.867 26.8498 20.3579C26.8612 21.0079 26.6743 21.6459 26.3139 22.1869C25.93 22.7356 25.3949 23.1608 24.7736 23.4107C24.1012 23.6993 23.2736 23.8509 22.2851 23.8509C21.6588 23.8522 21.0338 23.7916 20.4194 23.6698C19.9346 23.5859 19.463 23.4379 19.0172 23.2297C18.9693 23.2062 18.9294 23.1692 18.9024 23.1232C18.8755 23.0772 18.8627 23.0243 18.8656 22.971V20.5772C18.8644 20.5537 18.8688 20.5303 18.8785 20.5088C18.8881 20.4873 18.9027 20.4684 18.921 20.4536C18.9403 20.4422 18.9628 20.4373 18.9851 20.4397C19.0073 20.4421 19.0283 20.4517 19.0446 20.4671C19.5749 20.7791 20.1509 21.006 20.7515 21.1395C21.2813 21.2776 21.8266 21.3471 22.3741 21.3464C22.8965 21.3464 23.2679 21.2781 23.5156 21.154C23.6256 21.1028 23.7187 21.0214 23.7841 20.9193C23.8495 20.8171 23.8845 20.6985 23.885 20.5772C23.885 20.3848 23.7753 20.2059 23.555 20.0269C23.3346 19.8479 22.8825 19.6421 22.2075 19.3809C21.5163 19.1375 20.8598 18.8047 20.255 18.3909C19.8242 18.0837 19.4672 17.6843 19.2101 17.2219C18.9904 16.7874 18.8816 16.3053 18.8936 15.8186C18.8952 15.232 19.0561 14.6569 19.3591 14.1547C19.7086 13.6028 20.2101 13.1636 20.8032 12.89C21.4493 12.56 22.2603 12.4084 23.2343 12.4084C23.8055 12.4085 24.3759 12.45 24.9412 12.5326C25.3471 12.5874 25.7444 12.6936 26.1236 12.8486C26.1542 12.859 26.1825 12.8754 26.2066 12.8969C26.2308 12.9184 26.2504 12.9446 26.2643 12.9738C26.2801 13.0275 26.2893 13.0829 26.2917 13.1388V15.38C26.292 15.4067 26.2858 15.4332 26.2739 15.4571C26.2619 15.481 26.2444 15.5017 26.2229 15.5176C26.0982 15.5434 26.0294 15.5434 25.9746 15.516Z" fill="#3B3B3D"/>
<rect x="0.5" y="0.5" width="32" height="32" rx="5.5" stroke="#3B3B3D"/>
</svg>
