<svg width="33" height="33" viewBox="0 0 33 33" fill="none" xmlns="http://www.w3.org/2000/svg">
<path d="M7.21258 24.3962V10.2338C7.21258 10.1375 7.25383 10.0825 7.35008 10.0825C7.58383 10.0825 7.80383 10.0825 8.12008 10.0687C8.45008 10.055 8.79383 10.055 9.16508 10.0412C9.53633 10.0275 9.93508 10.0275 10.3613 10.0138C10.7876 10 11.2001 10 11.6126 10C12.7401 10 13.6751 10.1375 14.4451 10.4263C15.1326 10.66 15.7651 11.045 16.2876 11.5537C16.7276 11.9937 17.0713 12.53 17.2913 13.1212C17.4976 13.6987 17.6076 14.29 17.6076 14.9087C17.6076 16.0912 17.3326 17.0675 16.7826 17.8375C16.2326 18.6075 15.4626 19.185 14.5688 19.515C13.6338 19.8587 12.6026 19.9825 11.4751 19.9825C11.1451 19.9825 10.9251 19.9825 10.7876 19.9687C10.6501 19.955 10.4576 19.955 10.1963 19.955V24.3687C10.2101 24.465 10.1413 24.5475 10.0451 24.5612H9.99008H7.37758C7.26758 24.5612 7.21258 24.5062 7.21258 24.3825V24.3962ZM10.2101 12.75V17.37C10.4026 17.3837 10.5813 17.3975 10.7463 17.3975H11.4751C12.0113 17.3975 12.5476 17.315 13.0563 17.15C13.4963 17.0262 13.8813 16.765 14.1838 16.4212C14.4726 16.0775 14.6101 15.61 14.6101 15.005C14.6238 14.5787 14.5138 14.1525 14.2938 13.7813C14.0601 13.4238 13.7301 13.1487 13.3313 12.9975C12.8226 12.7912 12.2726 12.7087 11.7088 12.7225C11.3513 12.7225 11.0351 12.7225 10.7738 12.7362C10.4988 12.7225 10.3063 12.7363 10.2101 12.75Z" fill="#3B3B3D"/>
<path d="M19.5876 13.5614H21.9939C22.1314 13.5614 22.2414 13.6577 22.2826 13.7814C22.3239 13.8914 22.3514 14.0014 22.3651 14.1252C22.3926 14.2627 22.4201 14.4139 22.4339 14.5514C22.4476 14.7027 22.4614 14.8677 22.4614 15.0464C22.8739 14.5652 23.3689 14.1664 23.9326 13.8639C24.5651 13.5064 25.2939 13.3277 26.0226 13.3277C26.1189 13.3139 26.2014 13.3827 26.2151 13.4789V13.5339V16.2152C26.2151 16.3252 26.1464 16.3664 25.9951 16.3664C25.5001 16.3527 24.9914 16.3939 24.5101 16.5039C24.1114 16.5864 23.7264 16.7102 23.3551 16.8752C23.0939 16.9989 22.8464 17.1639 22.6539 17.3839V24.3964C22.6539 24.5339 22.5989 24.5889 22.4751 24.5889H19.7664C19.6564 24.6027 19.5601 24.5339 19.5464 24.4239V24.3689V16.7514C19.5464 16.4214 19.5464 16.0777 19.5326 15.7202C19.5189 15.3627 19.5189 15.0052 19.5051 14.6477C19.5051 14.3314 19.4776 14.0289 19.4501 13.7127C19.4364 13.6439 19.4776 13.5752 19.5464 13.5614C19.5464 13.5477 19.5739 13.5477 19.5876 13.5614Z" fill="#3B3B3D"/>
<rect x="0.5" y="0.5" width="32" height="32" rx="5.5" stroke="#3B3B3D"/>
</svg>
