<svg width="31" height="35" viewBox="0 0 31 35" fill="none" xmlns="http://www.w3.org/2000/svg">
<path d="M29.7937 1L30.2918 1.04446L30.3404 0.5H29.7937V1ZM27.1429 30.6966L27.2764 31.1784L27.6101 31.0859L27.6409 30.741L27.1429 30.6966ZM0.695999 1V0.5H0.149437L0.197975 1.0444L0.695999 1ZM3.34407 30.7012L2.84605 30.7456L2.87679 31.0904L3.21032 31.183L3.34407 30.7012ZM15.2271 34L15.0933 34.4818L15.227 34.5189L15.3606 34.4818L15.2271 34ZM6.11069 7.07129V6.57129H5.56317L5.61274 7.11655L6.11069 7.07129ZM6.44183 10.7141L5.94388 10.7593L5.98522 11.2141H6.44183V10.7141ZM20.3652 10.7141L20.8632 10.7583L20.9116 10.2141H20.3652V10.7141ZM20.0337 14.4443V14.9443H20.4913L20.5318 14.4885L20.0337 14.4443ZM15.2449 14.4443H14.7449V14.9443H15.2449V14.4443ZM15.2449 14.4441H15.7449V13.9441H15.2449V14.4441ZM6.76668 14.4441V13.9441H6.21986L6.26867 14.4887L6.76668 14.4441ZM7.09317 18.0868L6.59516 18.1314L6.63598 18.5868H7.09317V18.0868ZM15.2322 18.0868H15.7322V17.5868H15.2322V18.0868ZM15.2322 18.087H14.7322V18.587H15.2322V18.087ZM19.7178 18.087L20.2159 18.1315L20.2646 17.587H19.7178V18.087ZM19.295 22.8113L19.4253 23.294L19.7619 23.2032L19.793 22.8559L19.295 22.8113ZM15.2322 23.9079L15.1019 23.4252L14.7322 23.5249V23.9079H15.2322ZM15.2322 23.9083L15.3609 24.3914L15.7322 24.2925V23.9083H15.2322ZM15.229 23.9091L15.0986 24.3919L15.2281 24.4268L15.3576 24.3923L15.229 23.9091ZM11.172 22.8137L10.674 22.8582L10.705 23.2055L11.0417 23.2964L11.172 22.8137ZM10.9127 19.9084L11.4107 19.864L11.37 19.4084H10.9127V19.9084ZM7.25594 19.9084V19.4084H6.70934L6.75791 19.9529L7.25594 19.9084ZM7.76628 25.6281L7.26826 25.6725L7.29902 26.0172L7.63254 26.1098L7.76628 25.6281ZM15.2281 27.6995L15.0944 28.1813L15.2281 28.2184L15.3619 28.1813L15.2281 27.6995ZM15.2449 27.6949L15.3787 28.1766L15.7449 28.075V27.6949H15.2449ZM15.2449 27.6942L15.1114 27.2123L14.7449 27.3139V27.6942H15.2449ZM22.7 25.628L22.8336 26.1098L23.1673 26.0173L23.1981 25.6723L22.7 25.628ZM22.7548 25.0126L22.2568 24.9681L22.2568 24.9682L22.7548 25.0126ZM23.6108 15.4224L23.1129 15.3772L23.1128 15.378L23.6108 15.4224ZM23.6997 14.4443L24.1977 14.4895L24.1977 14.4887L23.6997 14.4443ZM24.3573 7.07129L24.8554 7.11571L24.9039 6.57129H24.3573V7.07129ZM29.2957 0.955544L26.6448 30.6521L27.6409 30.741L30.2918 1.04446L29.2957 0.955544ZM0.695999 1.5H29.7937V0.5H0.695999V1.5ZM3.84209 30.6568L1.19402 0.955598L0.197975 1.0444L2.84605 30.7456L3.84209 30.6568ZM15.3608 33.5182L3.47782 30.2194L3.21032 31.183L15.0933 34.4818L15.3608 33.5182ZM27.0093 30.2147L15.0935 33.5182L15.3606 34.4818L27.2764 31.1784L27.0093 30.2147ZM6.11069 7.57129H15.2322V6.57129H6.11069V7.57129ZM6.93977 10.6688L6.60863 7.02602L5.61274 7.11655L5.94388 10.7593L6.93977 10.6688ZM15.2322 10.2141H6.44183V11.2141H15.2322V10.2141ZM15.2449 10.2141H15.2322V11.2141H15.2449V10.2141ZM20.3652 10.2141H15.2449V11.2141H20.3652V10.2141ZM20.5318 14.4885L20.8632 10.7583L19.8672 10.6698L19.5357 14.4L20.5318 14.4885ZM15.2449 14.9443H20.0337V13.9443H15.2449V14.9443ZM14.7449 14.4441V14.4443H15.7449V14.4441H14.7449ZM6.76668 14.9441H15.2449V13.9441H6.76668V14.9441ZM7.59117 18.0421L7.26468 14.3995L6.26867 14.4887L6.59516 18.1314L7.59117 18.0421ZM15.2322 17.5868H7.09317V18.5868H15.2322V17.5868ZM15.7322 18.087V18.0868H14.7322V18.087H15.7322ZM19.7178 17.587H15.2322V18.587H19.7178V17.587ZM19.793 22.8559L20.2159 18.1315L19.2198 18.0424L18.797 22.7667L19.793 22.8559ZM15.3625 24.3906L19.4253 23.294L19.1647 22.3286L15.1019 23.4252L15.3625 24.3906ZM15.7322 23.9083V23.9079H14.7322V23.9083H15.7322ZM15.3576 24.3923L15.3609 24.3914L15.1035 23.4251L15.1003 23.426L15.3576 24.3923ZM11.0417 23.2964L15.0986 24.3919L15.3593 23.4264L11.3024 22.331L11.0417 23.2964ZM10.4146 19.9529L10.674 22.8582L11.67 22.7692L11.4107 19.864L10.4146 19.9529ZM8.94131 20.4084H10.9127V19.4084H8.94131V20.4084ZM7.25594 20.4084H8.94131V19.4084H7.25594V20.4084ZM8.2643 25.5836L7.75396 19.864L6.75791 19.9529L7.26826 25.6725L8.2643 25.5836ZM15.3619 27.2177L7.90003 25.1463L7.63254 26.1098L15.0944 28.1813L15.3619 27.2177ZM15.1112 27.2131L15.0944 27.2177L15.3619 28.1813L15.3787 28.1766L15.1112 27.2131ZM14.7449 27.6942V27.6949H15.7449V27.6942H14.7449ZM22.5665 25.1462L15.1114 27.2123L15.3785 28.176L22.8336 26.1098L22.5665 25.1462ZM22.2568 24.9682L22.202 25.5837L23.1981 25.6723L23.2528 25.0569L22.2568 24.9682ZM23.1128 15.378L22.2568 24.9681L23.2528 25.057L24.1088 15.4669L23.1128 15.378ZM23.2018 14.399L23.1129 15.3772L24.1088 15.4677L24.1976 14.4895L23.2018 14.399ZM23.8593 7.02687L23.2017 14.3999L24.1977 14.4887L24.8554 7.11571L23.8593 7.02687ZM15.2449 7.57129H24.3573V6.57129H15.2449V7.57129ZM15.2323 7.57129H15.2449V6.57129H15.2323V7.57129ZM15.2322 7.57129H15.2323V6.57129H15.2322V7.57129Z" fill="#3B3B3D"/>
</svg>
