<svg width="33" height="33" viewBox="0 0 33 33" fill="none" xmlns="http://www.w3.org/2000/svg">
<path d="M15.9911 19.7164H10.8761L9.83132 22.9481C9.81952 23.0071 9.78607 23.0596 9.73754 23.0952C9.68901 23.1308 9.62892 23.147 9.56907 23.1405H6.98287C6.83183 23.1405 6.79045 23.0578 6.83183 22.8928L11.2594 10.1464C11.3008 10.0093 11.3417 9.85778 11.397 9.69278C11.4534 9.39817 11.4821 9.09894 11.4829 8.79898C11.4785 8.7645 11.4874 8.72963 11.5079 8.70154C11.5284 8.67346 11.5589 8.65428 11.593 8.64795H15.1553C15.2655 8.64795 15.3203 8.68933 15.3337 8.75812L20.351 22.9202C20.3923 23.0717 20.351 23.1405 20.2134 23.1405H17.3391C17.2903 23.1454 17.2415 23.1329 17.2011 23.1051C17.1608 23.0774 17.1316 23.0362 17.1187 22.989L15.9911 19.7164ZM11.6737 16.9233H15.1661C15.0839 16.6347 14.9737 16.2907 14.8501 15.9333C14.7265 15.5619 14.6023 15.1631 14.4787 14.7509C14.3411 14.3247 14.2175 13.9119 14.0799 13.4857C13.9423 13.0595 13.8213 12.6607 13.7091 12.2619C13.5989 11.8771 13.5022 11.5197 13.4065 11.1897H13.3791C13.2559 11.7888 13.1005 12.3809 12.9136 12.9633C12.7067 13.6233 12.4998 14.3107 12.281 14.9981C12.0886 15.6995 11.8822 16.346 11.6758 16.9233H11.6737Z" fill="#3B3B3D"/>
<path d="M23.348 10.9985C23.1223 11.0035 22.8978 10.9634 22.6877 10.8808C22.4776 10.7981 22.286 10.6744 22.1242 10.5169C21.8096 10.1725 21.6425 9.71849 21.6587 9.25228C21.6504 9.02495 21.6903 8.79843 21.7756 8.58755C21.8609 8.37666 21.9897 8.18616 22.1537 8.02849C22.484 7.71574 22.9226 7.54314 23.3775 7.54694C23.9134 7.54694 24.3261 7.71194 24.6287 8.02849C24.9261 8.37633 25.0872 8.82024 25.0822 9.27786C25.0771 9.73548 24.9063 10.1757 24.6013 10.5169C24.439 10.6822 24.2431 10.8107 24.0269 10.8938C23.8107 10.9769 23.5792 11.0126 23.348 10.9985ZM21.8077 22.9333V12.3459C21.8077 12.2083 21.8625 12.1535 21.9866 12.1535H24.7089C24.833 12.1535 24.8878 12.2223 24.8878 12.3459V22.9333C24.8878 23.0843 24.833 23.1531 24.7089 23.1531H22.014C21.8765 23.1531 21.8077 23.0709 21.8077 22.9333Z" fill="#3B3B3D"/>
<rect x="0.5" y="0.5" width="32" height="32" rx="5.5" stroke="#3B3B3D"/>
</svg>
