<svg width="31" height="35" viewBox="0 0 31 35" fill="none" xmlns="http://www.w3.org/2000/svg">
<path d="M3.64825 30.7018L3.15022 30.7462L3.18097 31.091L3.51453 31.1835L3.64825 30.7018ZM1 1.00073V0.500732H0.453435L0.501976 1.04514L1 1.00073ZM15.5303 33.9997L15.3966 34.4815L15.5302 34.5186L15.6638 34.4815L15.5303 33.9997ZM27.4474 30.6976L27.5809 31.1795L27.9147 31.087L27.9454 30.7421L27.4474 30.6976ZM30.0977 1.00073L30.5958 1.04518L30.6443 0.500732H30.0977V1.00073ZM6.41405 7.07202V6.57202H5.86745L5.91603 7.11645L6.41405 7.07202ZM7.39683 18.0878L6.89881 18.1323L6.93945 18.5878L7.39683 18.5878L7.39683 18.0878ZM15.5365 18.0878L15.5365 18.5878L15.5365 18.5878L15.5365 18.0878ZM15.5489 18.0878L15.5489 17.5878L15.5488 17.5878L15.5489 18.0878ZM20.0224 18.0878L20.5205 18.1313L20.568 17.5878L20.0224 17.5878L20.0224 18.0878ZM19.6099 22.811L19.7401 23.2937L20.0776 23.2027L20.108 22.8545L19.6099 22.811ZM15.5489 23.9066H15.0489V24.5594L15.6791 24.3894L15.5489 23.9066ZM15.5489 23.8938H16.0489V23.243L15.4201 23.4106L15.5489 23.8938ZM15.5334 23.8979L15.4031 24.3806L15.5326 24.4156L15.6622 24.381L15.5334 23.8979ZM11.4765 22.8027L10.9784 22.8469L11.0093 23.1945L11.3461 23.2854L11.4765 22.8027ZM11.2186 19.8977L11.7167 19.8535L11.6762 19.3977H11.2186V19.8977ZM7.55977 19.8977V19.3977H7.01315L7.06175 19.9421L7.55977 19.8977ZM8.07023 25.617L7.57221 25.6614L7.60302 26.0066L7.93703 26.0989L8.07023 25.617ZM15.5324 27.6795L15.3992 28.1614L15.541 28.2006L15.6815 28.1567L15.5324 27.6795ZM15.5468 27.675H16.0468V26.9949L15.3976 27.1977L15.5468 27.675ZM15.5468 27.697H15.0468V28.3544L15.6803 28.1789L15.5468 27.697ZM23.0151 25.6273L23.1486 26.1091L23.4823 26.0167L23.5131 25.6718L23.0151 25.6273ZM24.0154 14.4434L24.5134 14.4879L24.5621 13.9434H24.0154V14.4434ZM15.5488 14.4434V13.9434H15.0505L15.0488 14.4418L15.5488 14.4434ZM15.5488 14.4455V14.9455H16.0472L16.0488 14.4471L15.5488 14.4455ZM10.7288 14.4455L10.2308 14.4899L10.2715 14.9455H10.7288V14.4455ZM10.3957 10.7154V10.2154H9.84906L9.89769 10.7599L10.3957 10.7154ZM15.5489 10.7154V11.2154H16.0489V10.7154H15.5489ZM15.5489 10.7144V10.2144H15.0489V10.7144H15.5489ZM24.333 10.7144V11.2144H24.7909L24.8311 10.7583L24.333 10.7144ZM24.4052 9.89558L23.9073 9.84996L23.9071 9.85167L24.4052 9.89558ZM24.5743 8.04965L25.0723 8.09527L25.0724 8.09378L24.5743 8.04965ZM24.661 7.07202L25.159 7.11615L25.2072 6.57202H24.661V7.07202ZM4.14627 30.6574L1.49802 0.956327L0.501976 1.04514L3.15022 30.7462L4.14627 30.6574ZM15.664 33.5179L3.78197 30.22L3.51453 31.1835L15.3966 34.4815L15.664 33.5179ZM27.3139 30.2158L15.3968 33.5179L15.6638 34.4815L27.5809 31.1795L27.3139 30.2158ZM29.5997 0.956286L26.9494 30.6532L27.9454 30.7421L30.5958 1.04518L29.5997 0.956286ZM1 1.50073H30.0977V0.500732H1V1.50073ZM6.41405 7.57202H15.5344V6.57202H6.41405V7.57202ZM7.89485 18.0434L6.91207 7.02759L5.91603 7.11645L6.89881 18.1323L7.89485 18.0434ZM15.5365 17.5878L7.39683 17.5878L7.39683 18.5878L15.5365 18.5878L15.5365 17.5878ZM15.5488 17.5878L15.5364 17.5878L15.5365 18.5878L15.5489 18.5878L15.5488 17.5878ZM20.0224 17.5878L15.5489 17.5878L15.5489 18.5878L20.0224 18.5878L20.0224 17.5878ZM20.108 22.8545L20.5205 18.1313L19.5243 18.0443L19.1118 22.7675L20.108 22.8545ZM15.6791 24.3894L19.7401 23.2937L19.4797 22.3282L15.4186 23.4239L15.6791 24.3894ZM15.0489 23.8938V23.9066H16.0489V23.8938H15.0489ZM15.6622 24.381L15.6777 24.3769L15.4201 23.4106L15.4046 23.4148L15.6622 24.381ZM11.3461 23.2854L15.4031 24.3806L15.6637 23.4152L11.6068 22.32L11.3461 23.2854ZM10.7206 19.9419L10.9784 22.8469L11.9745 22.7585L11.7167 19.8535L10.7206 19.9419ZM7.55977 20.3977H11.2186V19.3977H7.55977V20.3977ZM8.56826 25.5725L8.05779 19.8532L7.06175 19.9421L7.57221 25.6614L8.56826 25.5725ZM15.6656 27.1976L8.20344 25.1351L7.93703 26.0989L15.3992 28.1614L15.6656 27.1976ZM15.3976 27.1977L15.3832 27.2023L15.6815 28.1567L15.6959 28.1522L15.3976 27.1977ZM16.0468 27.697V27.675H15.0468V27.697H16.0468ZM22.8816 25.1455L15.4132 27.2152L15.6803 28.1789L23.1486 26.1091L22.8816 25.1455ZM23.5174 14.3989L22.5171 25.5828L23.5131 25.6718L24.5134 14.4879L23.5174 14.3989ZM15.5488 14.9434H24.0154V13.9434H15.5488V14.9434ZM16.0488 14.4471L16.0488 14.445L15.0488 14.4418L15.0488 14.4438L16.0488 14.4471ZM10.7288 14.9455H15.5488V13.9455H10.7288V14.9455ZM9.89769 10.7599L10.2308 14.4899L11.2268 14.401L10.8937 10.671L9.89769 10.7599ZM15.5489 10.2154H10.3957V11.2154H15.5489V10.2154ZM15.0489 10.7144V10.7154H16.0489V10.7144H15.0489ZM24.333 10.2144H15.5489V11.2144H24.333V10.2144ZM23.9071 9.85167L23.835 10.6705L24.8311 10.7583L24.9033 9.93949L23.9071 9.85167ZM24.0764 8.00403L23.9073 9.84996L24.9031 9.9412L25.0723 8.09527L24.0764 8.00403ZM24.1629 7.02789L24.0763 8.00552L25.0724 8.09378L25.159 7.11615L24.1629 7.02789ZM15.5489 7.57202H24.661V6.57202H15.5489V7.57202ZM15.5365 7.57202H15.5489V6.57202H15.5365V7.57202ZM15.5344 7.57202H15.5365V6.57202H15.5344V7.57202Z" fill="#3B3B3D"/>
</svg>
