<svg width="34" height="33" viewBox="0 0 34 33" fill="none" xmlns="http://www.w3.org/2000/svg">
<path d="M15.0355 29.0355C14.0978 29.9732 12.8261 30.5 11.5 30.5C10.1739 30.5 8.90215 29.9732 7.96447 29.0355C7.02678 28.0978 6.5 26.8261 6.5 25.5C6.5 24.1739 7.02678 22.9021 7.96447 21.9645C8.90215 21.0268 10.1739 20.5 11.5 20.5H16.5V25.5C16.5 26.8261 15.9732 28.0978 15.0355 29.0355Z" stroke="#3B3B3D"/>
<path d="M6.5 15.5C6.5 14.1739 7.02678 12.9021 7.96447 11.9645C8.90215 11.0268 10.1739 10.5 11.5 10.5H16.5V20.5H11.5C10.1739 20.5 8.90215 19.9732 7.96447 19.0355C7.02678 18.0978 6.5 16.8261 6.5 15.5Z" stroke="#3B3B3D"/>
<path d="M6.37947 5.5C6.37947 4.17459 6.90572 2.90341 7.84256 1.96585C8.77935 1.02832 10.05 0.501085 11.3754 0.5H16.3752V10.5H11.3795C10.0534 10.5 8.78162 9.97321 7.84394 9.03553C6.90626 8.09785 6.37947 6.82608 6.37947 5.5Z" stroke="#3B3B3D"/>
<path d="M16.5 0.5H21.5C22.8261 0.5 24.0978 1.02678 25.0355 1.96447C25.9732 2.90215 26.5 4.17392 26.5 5.5C26.5 6.82608 25.9732 8.09785 25.0355 9.03553C24.0978 9.97321 22.8261 10.5 21.5 10.5H16.5V0.5Z" stroke="#3B3B3D"/>
<path d="M26.5 15.5C26.5 16.8261 25.9732 18.0978 25.0355 19.0355C24.0978 19.9732 22.8261 20.5 21.5 20.5C20.1739 20.5 18.9021 19.9732 17.9645 19.0355C17.0268 18.0978 16.5 16.8261 16.5 15.5C16.5 14.1739 17.0268 12.9021 17.9645 11.9645C18.9021 11.0268 20.1739 10.5 21.5 10.5C22.8261 10.5 24.0978 11.0268 25.0355 11.9645C25.9732 12.9021 26.5 14.1739 26.5 15.5Z" stroke="#3B3B3D"/>
</svg>
