<svg width="33" height="33" viewBox="0 0 33 33" fill="none" xmlns="http://www.w3.org/2000/svg">
<path d="M14.1726 19.9577H9.05756L8.01256 23.1983C7.98506 23.3219 7.87506 23.4043 7.75131 23.3906H5.16631C5.01506 23.3906 4.97381 23.3082 5.01506 23.1434L9.44256 10.4693C9.48381 10.332 9.52506 10.2084 9.58006 10.0436C9.63506 9.75523 9.66256 9.45314 9.66256 9.15105C9.64881 9.08239 9.70381 9.01373 9.77256 9H9.81381H13.3338C13.4301 9 13.4988 9.04119 13.5126 9.10985L18.5313 23.1159C18.5726 23.267 18.5313 23.3356 18.3938 23.3356H15.5201C15.4238 23.3494 15.3276 23.2807 15.3001 23.1846L14.1726 19.889V19.9577ZM9.85506 17.2251H13.3476C13.2651 16.9368 13.1551 16.5935 13.0313 16.2365C12.9076 15.8657 12.7838 15.4675 12.6601 15.0556C12.5226 14.6299 12.3988 14.2179 12.2613 13.7923C12.1238 13.3666 12.0001 12.9684 11.8901 12.5702C11.7801 12.1857 11.6838 11.8287 11.5876 11.4991H11.5601C11.4363 12.0896 11.2851 12.68 11.0926 13.2705C10.8863 13.9296 10.6801 14.6162 10.4601 15.3027C10.2813 16.003 10.0613 16.6484 9.85506 17.2251Z" fill="#3B3B3D"/>
<path d="M26.6301 18.7216H22.2713C22.3263 19.1473 22.4638 19.573 22.6976 19.9437C22.9451 20.3145 23.2888 20.6028 23.7013 20.7676C24.2513 21.001 24.8563 21.1246 25.4613 21.1109C25.9426 21.0972 26.4238 21.056 26.8913 20.9599C27.3176 20.9049 27.7301 20.7951 28.1151 20.644C28.1838 20.5891 28.2251 20.6166 28.2251 20.7539V22.8548C28.2251 22.9097 28.2113 22.9646 28.1976 23.0196C28.1701 23.0608 28.1426 23.0882 28.1013 23.1157C27.6613 23.3079 27.2076 23.4452 26.7263 23.5276C26.0801 23.6512 25.4338 23.7061 24.7738 23.6924C23.7288 23.6924 22.8488 23.5276 22.1338 23.2118C21.4601 22.9234 20.8688 22.4703 20.4013 21.9073C19.9613 21.3718 19.6451 20.7676 19.4526 20.1085C19.2601 19.4631 19.1638 18.7903 19.1638 18.1037C19.1638 17.3622 19.2738 16.6344 19.5076 15.9204C19.7276 15.2338 20.0713 14.6022 20.5388 14.0392C20.9926 13.4899 21.5563 13.0505 22.2026 12.7347C22.8488 12.4189 23.6188 12.309 24.4988 12.309C25.2276 12.2953 25.9563 12.4326 26.6301 12.7347C27.1938 12.9819 27.6888 13.3526 28.0738 13.8332C28.4313 14.3001 28.7201 14.8219 28.8988 15.3986C29.0776 15.9479 29.1601 16.5109 29.1601 17.0739C29.1601 17.4034 29.1463 17.6918 29.1326 17.9527C29.1051 18.2136 29.0913 18.4058 29.0776 18.5294C29.0638 18.6255 28.9813 18.7079 28.8851 18.7079C28.8026 18.7079 28.6513 18.7216 28.4313 18.7354C28.2113 18.7628 27.9501 18.7766 27.6338 18.7766C27.3176 18.7766 26.9876 18.7216 26.6301 18.7216ZM22.2713 16.7168H25.1726C25.5301 16.7168 25.7913 16.7168 25.9563 16.7031C26.0663 16.6894 26.1763 16.6619 26.2726 16.5933V16.4559C26.2726 16.2774 26.2451 16.1127 26.1901 15.9479C25.9426 15.1789 25.2138 14.6571 24.4026 14.6846C23.6463 14.6434 22.9313 15.0416 22.5738 15.7282C22.4088 16.044 22.3126 16.3735 22.2713 16.7168Z" fill="#3B3B3D"/>
<rect x="0.5" y="0.5" width="32" height="32" rx="5.5" stroke="#3B3B3D"/>
</svg>
