<svg width="30" height="33" viewBox="0 0 30 33" fill="none" xmlns="http://www.w3.org/2000/svg">
<path fill-rule="evenodd" clip-rule="evenodd" d="M27.0939 29.6966L29.7448 0H0.647064L3.29514 29.7012L15.1781 33L27.0939 29.6966ZM15.1833 6.07129H6.06175L6.39289 9.71406H15.1833H15.196H20.3163L19.9848 13.4443H15.196V13.4441H6.71774L7.04423 17.0868H15.1833V17.087H19.6689L19.2461 21.8113L15.1833 22.9079V22.9083L15.18 22.9091L11.1231 21.8137L10.8637 18.9084H8.89238H7.207L7.71735 24.6281L15.1792 26.6995L15.196 26.6949V26.6942L22.6511 24.628L22.7059 24.0126L23.5619 14.4224L23.6508 13.4443L24.3084 6.07129H15.196H15.1834H15.1833Z" fill="#3B3B3D"/>
</svg>
