<svg width="323" height="19" viewBox="0 0 323 19" fill="none" xmlns="http://www.w3.org/2000/svg">
<path d="M9.244 18.264C8.028 18.264 6.892 18.04 5.836 17.592C4.796 17.144 3.876 16.528 3.076 15.744C2.292 14.944 1.676 14.024 1.228 12.984C0.78 11.928 0.556 10.8 0.556 9.6C0.556 8.4 0.772 7.28 1.204 6.24C1.652 5.184 2.268 4.264 3.052 3.48C3.852 2.68 4.772 2.056 5.812 1.608C6.868 1.16 8.004 0.935999 9.22 0.935999C10.516 0.935999 11.74 1.176 12.892 1.656C14.044 2.136 15.028 2.816 15.844 3.696L14.596 4.968C13.956 4.232 13.156 3.664 12.196 3.264C11.252 2.848 10.26 2.64 9.22 2.64C8.26 2.64 7.364 2.816 6.532 3.168C5.716 3.52 4.996 4.016 4.372 4.656C3.764 5.28 3.284 6.016 2.932 6.864C2.596 7.696 2.428 8.608 2.428 9.6C2.428 10.576 2.596 11.488 2.932 12.336C3.284 13.184 3.764 13.928 4.372 14.568C4.996 15.192 5.716 15.68 6.532 16.032C7.364 16.384 8.26 16.56 9.22 16.56C10.356 16.56 11.38 16.312 12.292 15.816C13.22 15.32 13.964 14.64 14.524 13.776C15.1 12.912 15.436 11.936 15.532 10.848H9.508V9.216H17.404V9.96C17.404 11.128 17.196 12.216 16.78 13.224C16.364 14.232 15.788 15.112 15.052 15.864C14.316 16.616 13.452 17.208 12.46 17.64C11.468 18.056 10.396 18.264 9.244 18.264ZM23.5878 18V11.16L16.9158 1.2H19.0758L24.5718 9.528L30.0438 1.2H32.1318L25.4358 11.232V18H23.5878ZM34.0199 18V1.2H46.0439V2.832H35.8679V8.712H42.5159V10.32H35.8679V16.368H46.1399V18H34.0199ZM55.6028 18.264C54.3868 18.264 53.2508 18.048 52.1948 17.616C51.1548 17.168 50.2348 16.552 49.4348 15.768C48.6508 14.968 48.0348 14.048 47.5868 13.008C47.1548 11.952 46.9388 10.816 46.9388 9.6C46.9388 8.384 47.1548 7.256 47.5868 6.216C48.0348 5.16 48.6508 4.24 49.4348 3.456C50.2348 2.656 51.1548 2.04 52.1948 1.608C53.2508 1.16 54.3868 0.935999 55.6028 0.935999C56.8028 0.935999 57.9228 1.16 58.9628 1.608C60.0188 2.04 60.9388 2.656 61.7228 3.456C62.5228 4.24 63.1388 5.16 63.5708 6.216C64.0188 7.256 64.2428 8.384 64.2428 9.6C64.2428 10.816 64.0188 11.952 63.5708 13.008C63.1388 14.048 62.5228 14.968 61.7228 15.768C60.9388 16.552 60.0188 17.168 58.9628 17.616C57.9228 18.048 56.8028 18.264 55.6028 18.264ZM55.6028 16.56C56.5628 16.56 57.4508 16.384 58.2668 16.032C59.0828 15.68 59.7948 15.192 60.4028 14.568C61.0268 13.928 61.5068 13.184 61.8428 12.336C62.1948 11.488 62.3708 10.576 62.3708 9.6C62.3708 8.608 62.1948 7.696 61.8428 6.864C61.5068 6.016 61.0268 5.28 60.4028 4.656C59.7948 4.016 59.0828 3.52 58.2668 3.168C57.4508 2.816 56.5628 2.64 55.6028 2.64C54.6428 2.64 53.7468 2.816 52.9148 3.168C52.0988 3.52 51.3788 4.016 50.7548 4.656C50.1468 5.28 49.6668 6.016 49.3148 6.864C48.9788 7.696 48.8108 8.6 48.8108 9.576C48.8108 10.568 48.9788 11.488 49.3148 12.336C49.6668 13.184 50.1468 13.928 50.7548 14.568C51.3788 15.192 52.0988 15.68 52.9148 16.032C53.7468 16.384 54.6428 16.56 55.6028 16.56ZM67.1371 18V1.2H68.9851L79.0891 14.832V1.2H80.8411V18H79.2091L68.8891 4.008V18H67.1371ZM92.4237 18.264C91.2077 18.264 90.0717 18.04 89.0157 17.592C87.9757 17.144 87.0557 16.528 86.2557 15.744C85.4717 14.944 84.8557 14.024 84.4077 12.984C83.9597 11.928 83.7357 10.8 83.7357 9.6C83.7357 8.4 83.9517 7.28 84.3837 6.24C84.8317 5.184 85.4477 4.264 86.2317 3.48C87.0317 2.68 87.9517 2.056 88.9917 1.608C90.0477 1.16 91.1837 0.935999 92.3997 0.935999C93.6957 0.935999 94.9197 1.176 96.0717 1.656C97.2237 2.136 98.2077 2.816 99.0237 3.696L97.7757 4.968C97.1357 4.232 96.3357 3.664 95.3757 3.264C94.4317 2.848 93.4397 2.64 92.3997 2.64C91.4397 2.64 90.5437 2.816 89.7117 3.168C88.8957 3.52 88.1757 4.016 87.5517 4.656C86.9437 5.28 86.4637 6.016 86.1117 6.864C85.7757 7.696 85.6077 8.608 85.6077 9.6C85.6077 10.576 85.7757 11.488 86.1117 12.336C86.4637 13.184 86.9437 13.928 87.5517 14.568C88.1757 15.192 88.8957 15.68 89.7117 16.032C90.5437 16.384 91.4397 16.56 92.3997 16.56C93.5357 16.56 94.5597 16.312 95.4717 15.816C96.3997 15.32 97.1437 14.64 97.7037 13.776C98.2797 12.912 98.6157 11.936 98.7117 10.848H92.6877V9.216H100.584V9.96C100.584 11.128 100.376 12.216 99.9597 13.224C99.5437 14.232 98.9677 15.112 98.2317 15.864C97.4957 16.616 96.6317 17.208 95.6397 17.64C94.6477 18.056 93.5757 18.264 92.4237 18.264ZM106.767 18V11.16L100.095 1.2H102.255L107.751 9.528L113.223 1.2H115.311L108.615 11.232V18H106.767ZM117.2 18V1.2H129.224V2.832H119.048V8.712H125.696V10.32H119.048V16.368H129.32V18H117.2ZM138.783 18.264C137.567 18.264 136.431 18.048 135.375 17.616C134.335 17.168 133.415 16.552 132.615 15.768C131.831 14.968 131.215 14.048 130.767 13.008C130.335 11.952 130.119 10.816 130.119 9.6C130.119 8.384 130.335 7.256 130.767 6.216C131.215 5.16 131.831 4.24 132.615 3.456C133.415 2.656 134.335 2.04 135.375 1.608C136.431 1.16 137.567 0.935999 138.783 0.935999C139.983 0.935999 141.103 1.16 142.143 1.608C143.199 2.04 144.119 2.656 144.903 3.456C145.703 4.24 146.319 5.16 146.751 6.216C147.199 7.256 147.423 8.384 147.423 9.6C147.423 10.816 147.199 11.952 146.751 13.008C146.319 14.048 145.703 14.968 144.903 15.768C144.119 16.552 143.199 17.168 142.143 17.616C141.103 18.048 139.983 18.264 138.783 18.264ZM138.783 16.56C139.743 16.56 140.631 16.384 141.447 16.032C142.263 15.68 142.975 15.192 143.583 14.568C144.207 13.928 144.687 13.184 145.023 12.336C145.375 11.488 145.551 10.576 145.551 9.6C145.551 8.608 145.375 7.696 145.023 6.864C144.687 6.016 144.207 5.28 143.583 4.656C142.975 4.016 142.263 3.52 141.447 3.168C140.631 2.816 139.743 2.64 138.783 2.64C137.823 2.64 136.927 2.816 136.095 3.168C135.279 3.52 134.559 4.016 133.935 4.656C133.327 5.28 132.847 6.016 132.495 6.864C132.159 7.696 131.991 8.6 131.991 9.576C131.991 10.568 132.159 11.488 132.495 12.336C132.847 13.184 133.327 13.928 133.935 14.568C134.559 15.192 135.279 15.68 136.095 16.032C136.927 16.384 137.823 16.56 138.783 16.56ZM150.317 18V1.2H152.165L162.269 14.832V1.2H164.021V18H162.389L152.069 4.008V18H150.317ZM167.371 5.808L168.763 0.743999H170.683L168.763 5.808H167.371ZM176.25 18.24C175.258 18.24 174.322 18.08 173.442 17.76C172.578 17.424 171.826 16.96 171.186 16.368L172.266 15.216C172.826 15.728 173.442 16.128 174.114 16.416C174.786 16.688 175.474 16.824 176.178 16.824C177.138 16.824 177.922 16.624 178.53 16.224C179.138 15.824 179.442 15.304 179.442 14.664C179.442 14.136 179.258 13.728 178.89 13.44C178.538 13.136 177.978 12.928 177.21 12.816L175.122 12.528C173.922 12.352 173.026 11.992 172.434 11.448C171.858 10.904 171.57 10.168 171.57 9.24C171.57 8.568 171.762 7.968 172.146 7.44C172.53 6.912 173.058 6.496 173.73 6.192C174.418 5.888 175.202 5.736 176.082 5.736C176.962 5.736 177.786 5.864 178.554 6.12C179.322 6.376 180.074 6.776 180.81 7.32L179.874 8.52C179.202 8.056 178.546 7.72 177.906 7.512C177.282 7.288 176.642 7.176 175.986 7.176C175.154 7.176 174.482 7.36 173.97 7.728C173.458 8.096 173.202 8.576 173.202 9.168C173.202 9.712 173.378 10.128 173.73 10.416C174.082 10.688 174.65 10.88 175.434 10.992L177.522 11.28C178.722 11.44 179.618 11.792 180.21 12.336C180.818 12.88 181.122 13.624 181.122 14.568C181.122 15.256 180.906 15.88 180.474 16.44C180.042 17 179.458 17.44 178.722 17.76C178.002 18.08 177.178 18.24 176.25 18.24ZM188.614 18V1.2H195.91C197.014 1.2 197.966 1.4 198.766 1.8C199.582 2.2 200.214 2.768 200.662 3.504C201.11 4.224 201.334 5.072 201.334 6.048C201.334 7.024 201.11 7.88 200.662 8.616C200.214 9.336 199.582 9.904 198.766 10.32C197.95 10.72 196.998 10.92 195.91 10.92H190.462V18H188.614ZM190.462 9.312H195.766C196.902 9.312 197.806 9.024 198.478 8.448C199.15 7.856 199.486 7.064 199.486 6.072C199.486 5.08 199.15 4.296 198.478 3.72C197.806 3.144 196.902 2.856 195.766 2.856H190.462V9.312ZM212.025 18.264C210.809 18.264 209.673 18.048 208.617 17.616C207.577 17.168 206.657 16.552 205.857 15.768C205.073 14.968 204.457 14.048 204.009 13.008C203.577 11.952 203.361 10.816 203.361 9.6C203.361 8.384 203.577 7.256 204.009 6.216C204.457 5.16 205.073 4.24 205.857 3.456C206.657 2.656 207.577 2.04 208.617 1.608C209.673 1.16 210.809 0.935999 212.025 0.935999C213.225 0.935999 214.345 1.16 215.385 1.608C216.441 2.04 217.361 2.656 218.145 3.456C218.945 4.24 219.561 5.16 219.993 6.216C220.441 7.256 220.665 8.384 220.665 9.6C220.665 10.816 220.441 11.952 219.993 13.008C219.561 14.048 218.945 14.968 218.145 15.768C217.361 16.552 216.441 17.168 215.385 17.616C214.345 18.048 213.225 18.264 212.025 18.264ZM212.025 16.56C212.985 16.56 213.873 16.384 214.689 16.032C215.505 15.68 216.217 15.192 216.825 14.568C217.449 13.928 217.929 13.184 218.265 12.336C218.617 11.488 218.793 10.576 218.793 9.6C218.793 8.608 218.617 7.696 218.265 6.864C217.929 6.016 217.449 5.28 216.825 4.656C216.217 4.016 215.505 3.52 214.689 3.168C213.873 2.816 212.985 2.64 212.025 2.64C211.065 2.64 210.169 2.816 209.337 3.168C208.521 3.52 207.801 4.016 207.177 4.656C206.569 5.28 206.089 6.016 205.737 6.864C205.401 7.696 205.233 8.6 205.233 9.576C205.233 10.568 205.401 11.488 205.737 12.336C206.089 13.184 206.569 13.928 207.177 14.568C207.801 15.192 208.521 15.68 209.337 16.032C210.169 16.384 211.065 16.56 212.025 16.56ZM223.559 18V1.2H230.759C231.863 1.2 232.823 1.4 233.639 1.8C234.455 2.2 235.087 2.76 235.535 3.48C235.999 4.2 236.231 5.048 236.231 6.024C236.231 7.128 235.903 8.08 235.247 8.88C234.607 9.664 233.743 10.216 232.655 10.536L236.423 18H234.383L230.783 10.776H225.407V18H223.559ZM225.407 9.216H230.639C231.775 9.216 232.679 8.928 233.351 8.352C234.039 7.776 234.383 7 234.383 6.024C234.383 5.064 234.039 4.296 233.351 3.72C232.679 3.144 231.775 2.856 230.639 2.856H225.407V9.216ZM243.05 18V2.856H236.978V1.2H250.97V2.856H244.898V18H243.05ZM253.231 18V1.2H265.255V2.832H255.079V8.832H261.751V10.44H255.079V18H253.231ZM274.603 18.264C273.387 18.264 272.251 18.048 271.195 17.616C270.155 17.168 269.235 16.552 268.435 15.768C267.651 14.968 267.035 14.048 266.587 13.008C266.155 11.952 265.939 10.816 265.939 9.6C265.939 8.384 266.155 7.256 266.587 6.216C267.035 5.16 267.651 4.24 268.435 3.456C269.235 2.656 270.155 2.04 271.195 1.608C272.251 1.16 273.387 0.935999 274.603 0.935999C275.803 0.935999 276.923 1.16 277.963 1.608C279.019 2.04 279.939 2.656 280.723 3.456C281.523 4.24 282.139 5.16 282.571 6.216C283.019 7.256 283.243 8.384 283.243 9.6C283.243 10.816 283.019 11.952 282.571 13.008C282.139 14.048 281.523 14.968 280.723 15.768C279.939 16.552 279.019 17.168 277.963 17.616C276.923 18.048 275.803 18.264 274.603 18.264ZM274.603 16.56C275.563 16.56 276.451 16.384 277.267 16.032C278.083 15.68 278.795 15.192 279.403 14.568C280.027 13.928 280.507 13.184 280.843 12.336C281.195 11.488 281.371 10.576 281.371 9.6C281.371 8.608 281.195 7.696 280.843 6.864C280.507 6.016 280.027 5.28 279.403 4.656C278.795 4.016 278.083 3.52 277.267 3.168C276.451 2.816 275.563 2.64 274.603 2.64C273.643 2.64 272.747 2.816 271.915 3.168C271.099 3.52 270.379 4.016 269.755 4.656C269.147 5.28 268.667 6.016 268.315 6.864C267.979 7.696 267.811 8.6 267.811 9.576C267.811 10.568 267.979 11.488 268.315 12.336C268.667 13.184 269.147 13.928 269.755 14.568C270.379 15.192 271.099 15.68 271.915 16.032C272.747 16.384 273.643 16.56 274.603 16.56ZM286.137 18V1.2H287.985V16.344H297.993V18H286.137ZM300.621 18V1.2H302.469V18H300.621ZM314.048 18.264C312.832 18.264 311.696 18.048 310.64 17.616C309.6 17.168 308.68 16.552 307.88 15.768C307.096 14.968 306.48 14.048 306.032 13.008C305.6 11.952 305.384 10.816 305.384 9.6C305.384 8.384 305.6 7.256 306.032 6.216C306.48 5.16 307.096 4.24 307.88 3.456C308.68 2.656 309.6 2.04 310.64 1.608C311.696 1.16 312.832 0.935999 314.048 0.935999C315.248 0.935999 316.368 1.16 317.408 1.608C318.464 2.04 319.384 2.656 320.168 3.456C320.968 4.24 321.584 5.16 322.016 6.216C322.464 7.256 322.688 8.384 322.688 9.6C322.688 10.816 322.464 11.952 322.016 13.008C321.584 14.048 320.968 14.968 320.168 15.768C319.384 16.552 318.464 17.168 317.408 17.616C316.368 18.048 315.248 18.264 314.048 18.264ZM314.048 16.56C315.008 16.56 315.896 16.384 316.712 16.032C317.528 15.68 318.24 15.192 318.848 14.568C319.472 13.928 319.952 13.184 320.288 12.336C320.64 11.488 320.816 10.576 320.816 9.6C320.816 8.608 320.64 7.696 320.288 6.864C319.952 6.016 319.472 5.28 318.848 4.656C318.24 4.016 317.528 3.52 316.712 3.168C315.896 2.816 315.008 2.64 314.048 2.64C313.088 2.64 312.192 2.816 311.36 3.168C310.544 3.52 309.824 4.016 309.2 4.656C308.592 5.28 308.112 6.016 307.76 6.864C307.424 7.696 307.256 8.6 307.256 9.576C307.256 10.568 307.424 11.488 307.76 12.336C308.112 13.184 308.592 13.928 309.2 14.568C309.824 15.192 310.544 15.68 311.36 16.032C312.192 16.384 313.088 16.56 314.048 16.56Z" fill="#A75A50"/>
</svg>
