<svg width="21" height="24" viewBox="0 0 21 24" fill="none" xmlns="http://www.w3.org/2000/svg">
<path d="M20.5 0.851145C20.5 0.851145 6.6659 0.846191 6.55399 0.846191C4.90682 0.846191 3.51457 1.23162 2.29144 2.00249C1.06879 2.77359 0.5 3.87195 0.5 5.29769V23.1532L20.5 23.1539V0.851145ZM17.9566 10.2455H12.7543V5.2978C12.7543 4.61632 12.5187 3.79477 12.2161 3.334H17.9566V10.2455ZM3.15896 5.91949C3.15896 4.80892 3.38462 4.0338 4.08347 3.59422C4.78254 3.15499 5.56948 2.93509 6.56786 2.93509C7.01723 2.93509 7.40185 2.97656 7.78497 3.0595C8.16751 3.14244 8.53029 3.28746 8.90474 3.49469C9.27954 3.70227 9.61399 4.01306 9.83884 4.42718C10.0632 4.84187 10.211 5.33927 10.211 5.91938V10.6943C10.211 11.2748 10.0555 11.7678 9.83087 12.1739C9.60624 12.5804 9.28555 12.8869 8.91121 13.0941C8.53688 13.3017 8.14289 13.4509 7.75237 13.5419C7.36104 13.6331 6.94381 13.6785 6.51145 13.6785C5.89572 13.6785 5.33561 13.6041 4.83619 13.4548C4.33723 13.3056 4.01399 12.9947 3.62312 12.5222C3.23249 12.0497 3.15908 11.4403 3.15908 10.6944L3.15896 5.91949ZM3.15896 15.0369C4.08381 15.5235 5.28567 15.7676 6.59434 15.7676C8.2415 15.7676 9.63688 15.3443 10.868 14.5733C11.7303 14.0335 12.245 13.2405 12.5035 12.4342H17.9566V20.9163L3.15896 20.9193V15.0369Z" fill="#A75A50"/>
</svg>
